<svg xmlns="http://www.w3.org/2000/svg" viewBox="-5.34216204309439 159.2547607421875 633.7421559395788 256.49053955078125"><rect height="100%" width="100%" x="-5.34216204309439" y="159.2547607421875" fill="#ffffff"/> <svg xmlns="http://www.w3.org/2000/svg" xmlns:xlink="http://www.w3.org/1999/xlink" version="1.1" id="Layer_1" x="64.65783795690561" y="229.2547607421875" viewBox="149.53294372558594 123.01815795898438 450.93408203125 503.9636535644531" xml:space="preserve" height="116.49053955078126" width="104.23278704309438" preserveAspectRatio="xMinYMin" enable-background="new 0 0 750 750" style="overflow: visible;"><linearGradient id="SVGID_1_" gradientUnits="userSpaceOnUse" x1="176.4573" y1="552.4377" x2="557.4382" y2="211.9548" style=""><stop offset="0" style="stop-color: #0072FF;"></stop><stop offset="1" style="stop-color: #00FFFF;"></stop></linearGradient><path class="st0" d="M432.4,160.1c10.2-5.9,23.2-2.4,29.1,7.8s2.4,23.2-7.8,29.1c-10.2,5.9-23.2,2.4-29.1-7.8S422.2,166,432.4,160.1  z M306.9,157.2c-11.8,0-21.3,9.5-21.3,21.3s9.5,21.3,21.3,21.3s21.3-9.5,21.3-21.3S318.7,157.2,306.9,157.2z M427.4,266.1  c5,8.7,16.1,11.6,24.8,6.6c8.7-5,11.6-16.1,6.6-24.8c-5-8.7-16.1-11.6-24.8-6.6C425.4,246.4,422.4,257.4,427.4,266.1z M387.2,303.4  c3.9-6.7,1.6-15.4-5.2-19.3c-6.7-3.9-15.4-1.6-19.3,5.2c-3.9,6.7-1.6,15.4,5.2,19.3C374.7,312.5,383.3,310.2,387.2,303.4z   M389,147.4c4.5-7.8,1.8-17.7-5.9-22.2s-17.7-1.8-22.2,5.9s-1.8,17.7,5.9,22.2S384.6,155.1,389,147.4z M306.9,238.9  c-10,0-18.1,8.1-18.1,18.1c0,10,8.1,18.1,18.1,18.1c10,0,18.1-8.1,18.1-18.1C325,247,316.9,238.9,306.9,238.9z M375,249.1  c17.3,0,31.3-14,31.3-31.3s-14-31.3-31.3-31.3s-31.3,14-31.3,31.3S357.7,249.1,375,249.1z M238.9,239.1c11.8,0,21.3-9.5,21.3-21.3  c0-11.8-9.5-21.3-21.3-21.3s-21.3,9.5-21.3,21.3C217.6,229.6,227.2,239.1,238.9,239.1z M152.4,325.1c-5.9,10.2-2.4,23.2,7.8,29.1  s23.2,2.4,29.1-7.8c5.9-10.2,2.4-23.2-7.8-29.1S158.3,314.9,152.4,325.1z M319.1,328.6c-3.9-6.7-12.5-9.1-19.3-5.2  c-6.7,3.9-9.1,12.5-5.2,19.3c3.9,6.7,12.5,9.1,19.3,5.2C320.7,344,323,335.4,319.1,328.6z M184.9,249c-4.5-7.8-14.4-10.4-22.2-5.9  c-7.8,4.5-10.4,14.4-5.9,22.2c4.5,7.8,14.4,10.4,22.2,5.9C186.7,266.7,189.4,256.8,184.9,249z M223.1,365.9c-5,8.7-2,19.7,6.6,24.8  c8.7,5,19.7,2,24.8-6.6c5-8.7,2-19.7-6.6-24.8C239.2,354.3,228.1,357.3,223.1,365.9z M266,312c8.7-15,3.5-34.2-11.5-42.8  c-15-8.7-34.2-3.5-42.8,11.5c-8.7,15-3.5,34.2,11.5,42.8S257.3,327,266,312z M189.3,424.9c5.9-10.2,2.4-23.2-7.8-29.1  s-23.2-2.4-29.1,7.8c-5.9,10.2-2.4,23.2,7.8,29.1S183.4,435.1,189.3,424.9z M220.5,542.9c5.9,10.2,18.9,13.7,29.1,7.8  s13.7-18.9,7.8-29.1c-5.9-10.2-18.9-13.7-29.1-7.8C218.1,519.6,214.6,532.7,220.5,542.9z M306.9,400.2c-7.8,0-14.1,6.3-14.1,14.1  s6.3,14.1,14.1,14.1s14.1-6.3,14.1-14.1S314.7,400.2,306.9,400.2z M170.8,476.7c-9,0-16.2,7.3-16.2,16.2c0,9,7.3,16.2,16.2,16.2  c9,0,16.2-7.3,16.2-16.2C187.1,483.9,179.8,476.7,170.8,476.7z M291.2,501.9c5,8.7,16.1,11.6,24.8,6.6c8.7-5,11.6-16.1,6.6-24.8  s-16.1-11.6-24.8-6.6C289.2,482.2,286.2,493.3,291.2,501.9z M266,438c-8.7-15-27.8-20.1-42.8-11.5s-20.1,27.8-11.5,42.8  c8.7,15,27.8,20.1,42.8,11.5C269.5,472.1,274.6,453,266,438z M325.4,560.8c-5.9-10.2-18.9-13.7-29.1-7.8  c-10.2,5.9-13.7,18.9-7.8,29.1s18.9,13.7,29.1,7.8C327.8,584,331.2,571,325.4,560.8z M443.1,592.8c11.8,0,21.3-9.5,21.3-21.3  s-9.5-21.3-21.3-21.3s-21.3,9.5-21.3,21.3S431.3,592.8,443.1,592.8z M362.8,446.6c-3.9,6.7-1.6,15.4,5.2,19.3  c6.7,3.9,15.4,1.6,19.3-5.2c3.9-6.7,1.6-15.4-5.2-19.3C375.3,437.5,366.7,439.8,362.8,446.6z M361,602.6c-4.5,7.8-1.8,17.7,5.9,22.2  c7.8,4.5,17.7,1.8,22.2-5.9s1.8-17.7-5.9-22.2S365.4,594.9,361,602.6z M443.1,511c10,0,18.1-8.1,18.1-18.1c0-10-8.1-18.1-18.1-18.1  c-10,0-18.1,8.1-18.1,18.1C425,502.9,433.1,511,443.1,511z M375,500.9c-17.3,0-31.3,14-31.3,31.3s14,31.3,31.3,31.3  s31.3-14,31.3-31.3S392.3,500.9,375,500.9z M511.1,510.9c-11.8,0-21.3,9.5-21.3,21.3s9.5,21.3,21.3,21.3c11.8,0,21.3-9.5,21.3-21.3  S522.8,510.9,511.1,510.9z M597.6,424.9c5.9-10.2,2.4-23.2-7.8-29.1c-10.2-5.9-23.2-2.4-29.1,7.8c-5.9,10.2-2.4,23.2,7.8,29.1  C578.7,438.6,591.7,435.1,597.6,424.9z M430.9,421.4c3.9,6.7,12.5,9.1,19.3,5.2c6.7-3.9,9.1-12.5,5.2-19.3  c-3.9-6.7-12.5-9.1-19.3-5.2C429.3,406,427,414.6,430.9,421.4z M565.1,501c4.5,7.8,14.4,10.4,22.2,5.9s10.4-14.4,5.9-22.2  c-4.5-7.8-14.4-10.4-22.2-5.9C563.3,483.3,560.6,493.2,565.1,501z M526.9,384.1c5-8.7,2-19.7-6.6-24.8c-8.7-5-19.7-2-24.8,6.6  c-5,8.7-2,19.7,6.6,24.8C510.8,395.7,521.9,392.7,526.9,384.1z M484,438c-8.7,15-3.5,34.2,11.5,42.8c15,8.7,34.2,3.5,42.8-11.5  c8.7-15,3.5-34.2-11.5-42.8C511.9,417.8,492.7,423,484,438z M560.7,325.1c-5.9,10.2-2.4,23.2,7.8,29.1c10.2,5.9,23.2,2.4,29.1-7.8  c5.9-10.2,2.4-23.2-7.8-29.1C579.6,311.4,566.6,314.9,560.7,325.1z M529.5,207.1c-5.9-10.2-18.9-13.7-29.1-7.8  c-10.2,5.9-13.7,18.9-7.8,29.1s18.9,13.7,29.1,7.8C531.9,230.4,535.4,217.3,529.5,207.1z M443.1,349.8c7.8,0,14.1-6.3,14.1-14.1  s-6.3-14.1-14.1-14.1s-14.1,6.3-14.1,14.1S435.3,349.8,443.1,349.8z M579.2,273.3c9,0,16.2-7.3,16.2-16.2c0-9-7.3-16.2-16.2-16.2  s-16.2,7.3-16.2,16.2C562.9,266.1,570.2,273.3,579.2,273.3z M484,312c8.7,15,27.8,20.1,42.8,11.5c15-8.7,20.1-27.8,11.5-42.8  c-8.7-15-27.8-20.1-42.8-11.5C480.5,277.9,475.4,297,484,312z" style="fill: url(#SVGID_1_);"></path></svg> <svg x="184" y="266.9350299835205" viewBox="3.7300000190734863 11.520000457763672 374.3999938964844 41.130001068115234" height="41.130001068115234" width="374.3999938964844" style="overflow: visible;"><g fill="#030b1c" fill-opacity="1" style=""><path d="M25.33 43.56L25.33 12.06L32.63 12.06L32.63 43.56L25.33 43.56ZM11.03 12.06L11.03 43.56L3.73 43.56L3.73 12.06L11.03 12.06ZM25.88 24.48L25.88 30.64L10.48 30.64L10.48 24.48L25.88 24.48ZM42.66 52.65L42.66 52.65Q40.77 52.65 38.92 52.06Q37.08 51.48 35.91 50.44L35.91 50.44L38.48 45.45Q39.28 46.17 40.34 46.57Q41.40 46.98 42.44 46.98L42.44 46.98Q43.92 46.98 44.80 46.28Q45.67 45.58 46.39 43.96L46.39 43.96L47.66 40.99L48.20 40.23L56.88 19.35L63.63 19.35L52.70 45.04Q51.52 47.97 50.02 49.63Q48.51 51.30 46.69 51.97Q44.86 52.65 42.66 52.65ZM51.61 39.60L46.80 44.50L36 19.35L43.24 19.35L51.61 39.60ZM80.82 43.92L80.82 43.92Q77.76 43.92 75.47 42.57Q73.17 41.22 71.89 38.45Q70.60 35.68 70.60 31.45L70.60 31.45Q70.60 27.18 71.82 24.43Q73.03 21.69 75.33 20.34Q77.63 18.99 80.82 18.99L80.82 18.99Q84.24 18.99 86.96 20.54Q89.69 22.09 91.28 24.88Q92.88 27.67 92.88 31.45L92.88 31.45Q92.88 35.28 91.28 38.07Q89.69 40.86 86.96 42.39Q84.24 43.92 80.82 43.92ZM73.53 52.29L66.51 52.29L66.51 19.35L73.22 19.35L73.22 24.30L73.08 31.50L73.53 38.65L73.53 52.29ZM79.60 38.16L79.60 38.16Q81.36 38.16 82.73 37.35Q84.10 36.54 84.94 35.03Q85.77 33.52 85.77 31.45L85.77 31.45Q85.77 29.34 84.94 27.85Q84.10 26.37 82.73 25.56Q81.36 24.75 79.60 24.75L79.60 24.75Q77.85 24.75 76.45 25.56Q75.06 26.37 74.25 27.85Q73.44 29.34 73.44 31.45L73.44 31.45Q73.44 33.52 74.25 35.03Q75.06 36.54 76.45 37.35Q77.85 38.16 79.60 38.16ZM109.57 43.92L109.57 43.92Q105.43 43.92 102.31 42.30Q99.18 40.68 97.47 37.87Q95.76 35.05 95.76 31.45L95.76 31.45Q95.76 27.81 97.45 25.00Q99.13 22.18 102.06 20.59Q104.98 18.99 108.67 18.99L108.67 18.99Q112.23 18.99 115.09 20.50Q117.94 22.00 119.61 24.82Q121.27 27.63 121.27 31.54L121.27 31.54Q121.27 31.95 121.23 32.47Q121.18 32.98 121.14 33.43L121.14 33.43L101.47 33.43L101.47 29.34L117.45 29.34L114.75 30.55Q114.75 28.66 113.98 27.27Q113.22 25.87 111.87 25.09Q110.52 24.30 108.72 24.30L108.72 24.30Q106.92 24.30 105.55 25.09Q104.17 25.87 103.41 27.29Q102.64 28.71 102.64 30.64L102.64 30.64L102.64 31.72Q102.64 33.70 103.52 35.21Q104.40 36.72 106.00 37.51Q107.59 38.29 109.75 38.29L109.75 38.29Q111.69 38.29 113.15 37.71Q114.61 37.12 115.83 35.95L115.83 35.95L119.56 40.00Q117.90 41.89 115.38 42.91Q112.86 43.92 109.57 43.92ZM132.97 43.56L125.95 43.56L125.95 19.35L132.66 19.35L132.66 26.19L131.71 24.21Q132.79 21.64 135.18 20.32Q137.56 18.99 140.98 18.99L140.98 18.99L140.98 25.47Q140.53 25.42 140.17 25.40Q139.81 25.38 139.41 25.38L139.41 25.38Q136.53 25.38 134.75 27.02Q132.97 28.66 132.97 32.13L132.97 32.13L132.97 43.56ZM155.83 44.10L155.83 44.10Q152.05 44.10 148.59 43.09Q145.12 42.07 143.01 40.45L143.01 40.45L145.48 34.96Q147.51 36.40 150.28 37.33Q153.04 38.25 155.88 38.25L155.88 38.25Q158.04 38.25 159.37 37.82Q160.69 37.39 161.32 36.63Q161.95 35.86 161.95 34.87L161.95 34.87Q161.95 33.61 160.96 32.87Q159.97 32.13 158.35 31.66Q156.73 31.18 154.78 30.76Q152.82 30.33 150.86 29.70Q148.90 29.07 147.28 28.08Q145.66 27.09 144.65 25.47Q143.64 23.85 143.64 21.33L143.64 21.33Q143.64 18.63 145.10 16.40Q146.56 14.17 149.51 12.85Q152.46 11.52 156.91 11.52L156.91 11.52Q159.88 11.52 162.76 12.22Q165.64 12.91 167.85 14.31L167.85 14.31L165.60 19.84Q163.39 18.58 161.19 17.98Q158.98 17.37 156.87 17.37L156.87 17.37Q154.75 17.37 153.40 17.86Q152.05 18.36 151.47 19.15Q150.88 19.93 150.88 20.97L150.88 20.97Q150.88 22.18 151.87 22.93Q152.86 23.67 154.48 24.12Q156.10 24.57 158.06 25.02Q160.02 25.47 161.98 26.05Q163.93 26.64 165.55 27.63Q167.17 28.62 168.19 30.24Q169.20 31.86 169.20 34.33L169.20 34.33Q169.20 36.99 167.71 39.19Q166.23 41.40 163.28 42.75Q160.33 44.10 155.83 44.10ZM188.01 43.92L188.01 43.92Q184.95 43.92 182.65 42.57Q180.36 41.22 179.08 38.45Q177.79 35.68 177.79 31.45L177.79 31.45Q177.79 27.18 179.01 24.43Q180.22 21.69 182.52 20.34Q184.81 18.99 188.01 18.99L188.01 18.99Q191.43 18.99 194.15 20.54Q196.87 22.09 198.47 24.88Q200.07 27.67 200.07 31.45L200.07 31.45Q200.07 35.28 198.47 38.07Q196.87 40.86 194.15 42.39Q191.43 43.92 188.01 43.92ZM180.72 52.29L173.70 52.29L173.70 19.35L180.40 19.35L180.40 24.30L180.27 31.50L180.72 38.65L180.72 52.29ZM186.79 38.16L186.79 38.16Q188.55 38.16 189.92 37.35Q191.29 36.54 192.13 35.03Q192.96 33.52 192.96 31.45L192.96 31.45Q192.96 29.34 192.13 27.85Q191.29 26.37 189.92 25.56Q188.55 24.75 186.79 24.75L186.79 24.75Q185.04 24.75 183.64 25.56Q182.25 26.37 181.44 27.85Q180.63 29.34 180.63 31.45L180.63 31.45Q180.63 33.52 181.44 35.03Q182.25 36.54 183.64 37.35Q185.04 38.16 186.79 38.16ZM216.76 43.92L216.76 43.92Q212.63 43.92 209.50 42.30Q206.37 40.68 204.66 37.87Q202.95 35.05 202.95 31.45L202.95 31.45Q202.95 27.81 204.64 25.00Q206.32 22.18 209.25 20.59Q212.17 18.99 215.86 18.99L215.86 18.99Q219.42 18.99 222.28 20.50Q225.13 22.00 226.80 24.82Q228.46 27.63 228.46 31.54L228.46 31.54Q228.46 31.95 228.42 32.47Q228.38 32.98 228.33 33.43L228.33 33.43L208.66 33.43L208.66 29.34L224.64 29.34L221.94 30.55Q221.94 28.66 221.17 27.27Q220.41 25.87 219.06 25.09Q217.71 24.30 215.91 24.30L215.91 24.30Q214.11 24.30 212.74 25.09Q211.36 25.87 210.60 27.29Q209.83 28.71 209.83 30.64L209.83 30.64L209.83 31.72Q209.83 33.70 210.71 35.21Q211.59 36.72 213.19 37.51Q214.78 38.29 216.94 38.29L216.94 38.29Q218.88 38.29 220.34 37.71Q221.80 37.12 223.02 35.95L223.02 35.95L226.75 40.00Q225.09 41.89 222.57 42.91Q220.05 43.92 216.76 43.92ZM244.84 43.92L244.84 43.92Q240.93 43.92 237.87 42.32Q234.81 40.72 233.08 37.89Q231.34 35.05 231.34 31.45L231.34 31.45Q231.34 27.81 233.08 25.00Q234.81 22.18 237.87 20.59Q240.93 18.99 244.84 18.99L244.84 18.99Q248.67 18.99 251.50 20.59Q254.34 22.18 255.69 25.15L255.69 25.15L250.25 28.08Q249.30 26.37 247.88 25.56Q246.47 24.75 244.80 24.75L244.80 24.75Q243 24.75 241.56 25.56Q240.12 26.37 239.29 27.85Q238.46 29.34 238.46 31.45L238.46 31.45Q238.46 33.57 239.29 35.05Q240.12 36.54 241.56 37.35Q243 38.16 244.80 38.16L244.80 38.16Q246.47 38.16 247.88 37.37Q249.30 36.58 250.25 34.83L250.25 34.83L255.69 37.80Q254.34 40.72 251.50 42.32Q248.67 43.92 244.84 43.92ZM270.68 33.70L257.94 33.70L257.94 28.08L270.68 28.08L270.68 33.70ZM283.45 32.08L283.45 26.23L298.57 26.23L298.57 32.08L283.45 32.08ZM283.99 17.91L283.99 43.56L276.70 43.56L276.70 12.06L300.51 12.06L300.51 17.91L283.99 17.91ZM319.77 43.56L305.46 43.56L305.46 12.06L319.77 12.06Q324.90 12.06 328.81 14.02Q332.73 15.97 334.93 19.48Q337.14 22.99 337.14 27.81L337.14 27.81Q337.14 32.58 334.93 36.11Q332.73 39.64 328.81 41.60Q324.90 43.56 319.77 43.56L319.77 43.56ZM312.75 18.04L312.75 37.57L319.41 37.57Q322.56 37.57 324.88 36.38Q327.19 35.19 328.48 32.98Q329.76 30.78 329.76 27.81L329.76 27.81Q329.76 24.79 328.48 22.61Q327.19 20.43 324.88 19.24Q322.56 18.04 319.41 18.04L319.41 18.04L312.75 18.04ZM349.47 43.56L342.63 43.56L342.63 12.06L348.66 12.06L362.07 34.29L358.88 34.29L372.06 12.06L378.04 12.06L378.13 43.56L371.29 43.56L371.25 22.54L372.51 22.54L361.98 40.23L358.69 40.23L347.94 22.54L349.47 22.54L349.47 43.56Z" transform="translate(0, 0)"></path></g></svg></svg>